HIERARCHY
ROOT Hips
{
    OFFSET   0.000000   0.000000   0.000000
    CHANNELS 6 Xposition Yposition Zposition Zrotation Xrotation Yrotation
    JOINT Chest
    {
        OFFSET   0.000000   8.007230   0.000000
        CHANNELS 3 Zrotation Xrotation Yrotation
        JOINT Chest2
        {
            OFFSET   0.000000  22.077100   0.000000
            CHANNELS 3 Zrotation Xrotation Yrotation
            JOINT Neck
            {
                OFFSET   0.000000  23.255100   0.000000
                CHANNELS 3 Zrotation Xrotation Yrotation
                JOINT Head
                {
                    OFFSET   0.000000  14.370100   1.956600
                    CHANNELS 3 Zrotation Xrotation Yrotation
                    End Site
                    {
                        OFFSET   0.000000  19.566000   0.000000
                    }
                }
            }
            JOINT LeftCollar
            {
                OFFSET   3.911900  19.017000  -0.467063
                CHANNELS 3 Zrotation Xrotation Yrotation
                JOINT LeftShoulder
                {
                    OFFSET  10.383700   0.000000   0.000000
                    CHANNELS 3 Zrotation Xrotation Yrotation
                    JOINT LeftElbow
                    {
                        OFFSET  26.662100   0.001193   0.000980
                        CHANNELS 3 Zrotation Xrotation Yrotation
                        JOINT LeftWrist
                        {
                            OFFSET  28.869000  -0.000059  -0.000082
                            CHANNELS 3 Zrotation Xrotation Yrotation
                            JOINT LeftFinger0
                            {
                                OFFSET   2.044650  -2.323450   3.252850
                                CHANNELS 3 Zrotation Xrotation Yrotation
                                JOINT LeftFinger01
                                {
                                    OFFSET   3.088130   0.000000   0.000000
                                    CHANNELS 3 Zrotation Xrotation Yrotation
                                    JOINT LeftFinger02
                                    {
                                        OFFSET   2.639460   0.000000   0.000000
                                        CHANNELS 3 Zrotation Xrotation Yrotation
                                        End Site
                                        {
                                            OFFSET   2.582190   0.000000   0.000000
                                        }
                                    }
                                }
                            }
                            JOINT LeftFinger1
                            {
                                OFFSET   8.364480   0.000000   3.252850
                                CHANNELS 3 Zrotation Xrotation Yrotation
                                JOINT LeftFinger11
                                {
                                    OFFSET   4.646930   0.000000   0.000000
                                    CHANNELS 3 Zrotation Xrotation Yrotation
                                    JOINT LeftFinger12
                                    {
                                        OFFSET   2.323470   0.000000   0.000000
                                        CHANNELS 3 Zrotation Xrotation Yrotation
                                        End Site
                                        {
                                            OFFSET   2.273050   0.000000   0.000000
                                        }
                                    }
                                }
                            }
                            JOINT LeftFinger2
                            {
                                OFFSET   8.364490   0.000016   1.078090
                                CHANNELS 3 Zrotation Xrotation Yrotation
                                JOINT LeftFinger21
                                {
                                    OFFSET   5.111610   0.000000   0.000000
                                    CHANNELS 3 Zrotation Xrotation Yrotation
                                    JOINT LeftFinger22
                                    {
                                        OFFSET   2.788150   0.000016   0.000000
                                        CHANNELS 3 Zrotation Xrotation Yrotation
                                        End Site
                                        {
                                            OFFSET   2.727660   0.000000   0.000000
                                        }
                                    }
                                }
                            }
                            JOINT LeftFinger3
                            {
                                OFFSET   7.899780   0.000015  -1.078090
                                CHANNELS 3 Zrotation Xrotation Yrotation
                                JOINT LeftFinger31
                                {
                                    OFFSET   4.646930   0.000000   0.000000
                                    CHANNELS 3 Zrotation Xrotation Yrotation
                                    JOINT LeftFinger32
                                    {
                                        OFFSET   2.323470   0.000000   0.000000
                                        CHANNELS 3 Zrotation Xrotation Yrotation
                                        End Site
                                        {
                                            OFFSET   2.273050   0.000000   0.000000
                                        }
                                    }
                                }
                            }
                            JOINT LeftFinger4
                            {
                                OFFSET   7.435090   0.000000  -3.252850
                                CHANNELS 3 Zrotation Xrotation Yrotation
                                JOINT LeftFinger41
                                {
                                    OFFSET   3.717550   0.000000   0.000000
                                    CHANNELS 3 Zrotation Xrotation Yrotation
                                    JOINT LeftFinger42
                                    {
                                        OFFSET   1.858770   0.000000   0.000000
                                        CHANNELS 3 Zrotation Xrotation Yrotation
                                        End Site
                                        {
                                            OFFSET   1.818440   0.000000   0.000000
                                        }
                                    }
                                }
                            }
                        }
                    }
                }
            }
            JOINT RightCollar
            {
                OFFSET  -3.911910  19.017000  -0.467062
                CHANNELS 3 Zrotation Xrotation Yrotation
                JOINT RightShoulder
                {
                    OFFSET -10.383700   0.000014   0.000000
                    CHANNELS 3 Zrotation Xrotation Yrotation
                    JOINT RightElbow
                    {
                        OFFSET -26.662100   0.001225   0.001091
                        CHANNELS 3 Zrotation Xrotation Yrotation
                        JOINT RightWrist
                        {
                            OFFSET -28.869000  -0.000020  -0.000085
                            CHANNELS 3 Zrotation Xrotation Yrotation
                            JOINT RightFinger0
                            {
                                OFFSET  -2.044650  -2.323490   3.252850
                                CHANNELS 3 Zrotation Xrotation Yrotation
                                JOINT RightFinger01
                                {
                                    OFFSET  -3.088130   0.000000   0.000000
                                    CHANNELS 3 Zrotation Xrotation Yrotation
                                    JOINT RightFinger02
                                    {
                                        OFFSET  -2.639460   0.000000   0.000000
                                        CHANNELS 3 Zrotation Xrotation Yrotation
                                        End Site
                                        {
                                            OFFSET  -2.582190   0.000000   0.000000
                                        }
                                    }
                                }
                            }
                            JOINT RightFinger1
                            {
                                OFFSET  -8.364480   0.000000   3.252850
                                CHANNELS 3 Zrotation Xrotation Yrotation
                                JOINT RightFinger11
                                {
                                    OFFSET  -4.646930   0.000000   0.000000
                                    CHANNELS 3 Zrotation Xrotation Yrotation
                                    JOINT RightFinger12
                                    {
                                        OFFSET  -2.323470   0.000000   0.000000
                                        CHANNELS 3 Zrotation Xrotation Yrotation
                                        End Site
                                        {
                                            OFFSET  -2.273050   0.000000   0.000000
                                        }
                                    }
                                }
                            }
                            JOINT RightFinger2
                            {
                                OFFSET  -8.364480   0.000000   1.078090
                                CHANNELS 3 Zrotation Xrotation Yrotation
                                JOINT RightFinger21
                                {
                                    OFFSET  -5.111620   0.000000   0.000000
                                    CHANNELS 3 Zrotation Xrotation Yrotation
                                    JOINT RightFinger22
                                    {
                                        OFFSET  -2.788160   0.000000   0.000000
                                        CHANNELS 3 Zrotation Xrotation Yrotation
                                        End Site
                                        {
                                            OFFSET  -2.727660   0.000000   0.000000
                                        }
                                    }
                                }
                            }
                            JOINT RightFinger3
                            {
                                OFFSET  -7.899780   0.000000  -1.078090
                                CHANNELS 3 Zrotation Xrotation Yrotation
                                JOINT RightFinger31
                                {
                                    OFFSET  -4.646930   0.000000   0.000000
                                    CHANNELS 3 Zrotation Xrotation Yrotation
                                    JOINT RightFinger32
                                    {
                                        OFFSET  -2.323470   0.000000   0.000000
                                        CHANNELS 3 Zrotation Xrotation Yrotation
                                        End Site
                                        {
                                            OFFSET  -2.273050   0.000000   0.000000
                                        }
                                    }
                                }
                            }
                            JOINT RightFinger4
                            {
                                OFFSET  -7.435090   0.000000  -3.252850
                                CHANNELS 3 Zrotation Xrotation Yrotation
                                JOINT RightFinger41
                                {
                                    OFFSET  -3.717550   0.000000   0.000000
                                    CHANNELS 3 Zrotation Xrotation Yrotation
                                    JOINT RightFinger42
                                    {
                                        OFFSET  -1.858760   0.000000   0.000000
                                        CHANNELS 3 Zrotation Xrotation Yrotation
                                        End Site
                                        {
                                            OFFSET  -1.818440   0.000000   0.000000
                                        }
                                    }
                                }
                            }
                        }
                    }
                }
            }
        }
    }
    JOINT LeftHip
    {
        OFFSET   9.783030   0.000000   0.000000
        CHANNELS 3 Zrotation Xrotation Yrotation
        JOINT LeftKnee
        {
            OFFSET   0.000063 -41.789100   0.000608
            CHANNELS 3 Zrotation Xrotation Yrotation
            JOINT LeftAnkle
            {
                OFFSET   0.000048 -41.133200  -0.000184
                CHANNELS 3 Zrotation Xrotation Yrotation
                JOINT LeftToe
                {
                    OFFSET   0.000000  -6.358960  14.674500
                    CHANNELS 3 Zrotation Xrotation Yrotation
                    End Site
                    {
                        OFFSET   0.000000   0.000000   3.913200
                    }
                }
            }
        }
    }
    JOINT RightHip
    {
        OFFSET  -9.783030   0.000000   0.000000
        CHANNELS 3 Zrotation Xrotation Yrotation
        JOINT RightKnee
        {
            OFFSET   0.000071 -41.789100   0.001239
            CHANNELS 3 Zrotation Xrotation Yrotation
            JOINT RightAnkle
            {
                OFFSET   0.000037 -41.133200  -0.000166
                CHANNELS 3 Zrotation Xrotation Yrotation
                JOINT RightToe
                {
                    OFFSET   0.000000  -6.358960  14.674500
                    CHANNELS 3 Zrotation Xrotation Yrotation
                    End Site
                    {
                        OFFSET   0.000000   0.000000   3.913200
                    }
                }
            }
        }
    }
}
MOTION
Frames: 5
Frame Time:   0.016667
 -0.735409  90.088100  -0.437769  -2.118950 -10.146000  -5.325980   0.352303   6.087980  -0.616921   0.777593  12.171600  -1.282650   2.404380   2.761490  -0.115997   3.975200   5.569830   7.106730  -6.825680  -3.425460   6.240320 -61.558200  -0.393576 -34.071900  16.253800  -8.792100 -63.809400   3.968110 -15.101000  -5.616950  37.809400  28.170700 -70.155100  -2.785480   0.000332   0.000084   3.607260   0.003379  -0.002489 -20.708900   3.694900  -9.683150 -17.199700   0.001995   0.003018 -12.039700   0.001423   0.007734 -21.835400   0.613920  -1.532160 -21.844100  -0.001009   0.001402 -14.548100   0.000128   0.001919 -14.459800   0.412909  -1.601990 -14.466600   0.001130   0.006292  -9.634750   0.000560   0.004556 -12.071300  -2.553340  11.770000 -18.502200  -0.000055   0.007022 -12.322400  -0.004218   0.006418   9.842140  -0.367525  11.705800  57.504900  -3.516860  32.403700 -17.876800 -13.967900  54.676000 -25.208200 -14.208000  18.426500 -31.451100  16.590900  64.639800  22.983500   0.002345  -0.002938   6.491750   0.001283  -0.004486  25.108800   1.402220   2.982750  20.573500  -0.000162  -0.003159  14.401400  -0.006937  -0.001901  19.422800  -2.333230  -6.601880  19.556600   0.000369  -0.003962  13.024700  -0.004645  -0.004415  20.579600  -4.343990 -11.409400  21.013600  -0.000003  -0.005618  13.995000  -0.006656  -0.003966  25.500100  -8.405580 -17.059900  40.144800   0.000047  -0.001294  26.736400  -0.004192  -0.001031   2.039840  11.215300   4.660710  -0.410528   2.058290  18.948000  -5.124140  -4.701900   6.497600  -0.000000   0.000000   0.000000   3.109340  10.260400  -7.435260  -1.793060   3.505430  -7.688410  -9.466940  -0.279641   4.176290  -0.000000   0.000000   0.000000
 -0.753571  90.084000  -0.380758  -2.140660 -10.186400  -5.402990   0.351780   6.134350  -0.577763   0.772881  12.264700  -1.204070   2.404150   2.633520  -0.110501   3.973080   5.311960   7.414810  -7.052680  -3.518000   6.236340 -61.779400  -0.377680 -33.381500  16.438400  -8.300980 -63.329700   4.299330 -15.233000  -5.712200  37.809500  28.187700 -70.179300  -2.944470   0.000199   0.000087   3.527750   0.003243  -0.002443 -20.732700   3.690980  -9.653050 -17.218500   0.002021   0.003012 -12.052900   0.001391   0.007738 -21.842000   0.613031  -1.529310 -21.850500  -0.000950   0.001365 -14.552400   0.000154   0.001891 -14.464400   0.411382  -1.595360 -14.470400   0.001200   0.006262  -9.637280   0.000607   0.004540 -12.173000  -2.567990  11.735200 -18.655600   0.000000   0.006987 -12.424600  -0.004216   0.006383   9.988940  -0.381556  11.768200  57.755000  -3.561460  31.881100 -17.971300 -13.324400  53.958300 -25.630100 -15.031300  18.208400 -31.513800  16.930800  64.856900  23.144800   0.002340  -0.002939   6.572370   0.001285  -0.004496  25.180100   1.399040   2.969680  20.631600  -0.000172  -0.003150  14.442100  -0.006943  -0.001898  19.515200  -2.333570  -6.557230  19.649000   0.000464  -0.003961  13.086200  -0.004644  -0.004406  20.687400  -4.360690 -11.387500  21.122300   0.000100  -0.005550  14.067400  -0.006657  -0.003947  25.580300  -8.370550 -16.915600  40.240900   0.000094  -0.001303  26.800400  -0.004193  -0.001012   2.045750  11.277900   4.669220  -0.427000   2.101710  18.987900  -5.116000  -4.767380   6.514130  -0.000000   0.000000  -0.000000   3.122030  10.330000  -7.441380  -1.798040   3.501660  -7.618090  -9.469420  -0.302101   4.176880  -0.000000   0.000000   0.000000
 -0.767444  90.080300  -0.326533  -2.160700 -10.233000  -5.468220   0.352329   6.182750  -0.543525   0.770836  12.361700  -1.135550   2.396440   2.512380  -0.105030   3.957620   5.067770   7.715480  -7.268410  -3.597000   6.219550 -62.006500  -0.310244 -32.735100  16.678900  -7.871400 -62.801200   4.609990 -15.315100  -5.758220  37.841300  28.277500 -70.267600  -2.847430   0.000052   0.000044   3.576280   0.003110  -0.002377 -20.692500   3.727310  -9.776380 -17.188400   0.002047   0.003023 -12.031900   0.001356   0.007734 -21.847500   0.648626  -1.616810 -21.857400  -0.000883   0.001339 -14.557000   0.000167   0.001857 -14.464800   0.435184  -1.686900 -14.471100   0.001276   0.006229  -9.637720   0.000650   0.004530 -12.249400  -2.559370  11.622200 -18.765600   0.000069   0.006971 -12.497900  -0.004225   0.006357  10.102100  -0.385612  11.825000  57.958200  -3.568460  31.402700 -17.940800 -12.798200  53.252200 -26.189300 -15.544000  18.057500 -31.578200  17.276500  65.084700  23.324000   0.002339  -0.002935   6.661990   0.001284  -0.004480  25.318400   1.403460   2.961070  20.744900  -0.000169  -0.003153  14.521400  -0.006949  -0.001904  19.638300  -2.329630  -6.499450  19.770900   0.000552  -0.003955  13.167400  -0.004645  -0.004392  20.793100  -4.376960 -11.366000  21.228900   0.000205  -0.005511  14.138400  -0.006652  -0.003922  25.651000  -8.334720 -16.797400  40.325900   0.000129  -0.001318  26.857000  -0.004192  -0.000994   2.052430  11.337500   4.669180  -0.446769   2.154560  19.028100  -5.103560  -4.833340   6.526950  -0.000000   0.000000  -0.000000   3.137990  10.410300  -7.443810  -1.802480   3.491230  -7.573570  -9.472940  -0.326896   4.187460   0.000000   0.000000   0.000000
 -0.778196  90.077100  -0.274091  -2.177550 -10.282000  -5.520300   0.353331   6.230110  -0.513358   0.770083  12.456700  -1.075260   2.377660   2.397760  -0.099536   3.925320   4.836830   8.004130  -7.455830  -3.647390   6.206510 -62.223600  -0.216375 -32.139400  16.940300  -7.477850 -62.245700   4.923620 -15.343500  -5.809710  37.902500  28.443900 -70.418000  -2.682570  -0.000097  -0.000000   3.658710   0.002980  -0.002318 -20.635600   3.813530 -10.013300 -17.158200   0.002073   0.003034 -12.010800   0.001323   0.007729 -21.868200   0.707468  -1.759710 -21.879000  -0.000816   0.001318 -14.571400   0.000177   0.001824 -14.464100   0.475010  -1.836400 -14.471700   0.001354   0.006195  -9.638170   0.000691   0.004519 -12.313200  -2.538610  11.471400 -18.853500   0.000137   0.006957 -12.556500  -0.004234   0.006333  10.193100  -0.386129  11.877300  58.129900  -3.545420  30.963900 -17.834900 -12.371500  52.572200 -26.764800 -15.848000  17.954600 -31.618000  17.484200  65.225100  23.497000   0.002339  -0.002931   6.748470   0.001281  -0.004464  25.457300   1.410860   2.959840  20.858800  -0.000166  -0.003156  14.601100  -0.006955  -0.001910  19.752300  -2.323680  -6.443130  19.883400   0.000642  -0.003952  13.242300  -0.004646  -0.004379  20.882600  -4.390650 -11.347900  21.319100   0.000313  -0.005476  14.198500  -0.006648  -0.003902  25.710000  -8.300640 -16.691500  40.395300   0.000163  -0.001337  26.903200  -0.004191  -0.000977   2.058020  11.392700   4.668110  -0.468882   2.215840  19.060700  -5.088450  -4.901120   6.537660  -0.000000   0.000000  -0.000000   3.152270  10.494200  -7.445910  -1.806140   3.479060  -7.543810  -9.476230  -0.351853   4.202200   0.000000   0.000000   0.000000
 -0.787140  90.074700  -0.222769  -2.189160 -10.330100  -5.554190   0.354540   6.274320  -0.488470   0.770253  12.545200  -1.025580   2.349110   2.291140  -0.093968   3.876720   4.622180   8.279690  -7.594010  -3.662110   6.213620 -62.435600  -0.096189 -31.612400  17.220400  -7.118130 -61.669900   5.281560 -15.201200  -5.921980  37.984900  28.724300 -70.695100  -2.508350  -0.000244   0.000030   3.745820   0.002853  -0.002299 -20.720200   3.948200 -10.298700 -17.248800   0.002093   0.003023 -12.074200   0.001300   0.007725 -21.936500   0.764879  -1.893780 -21.948100  -0.000756   0.001297 -14.617400   0.000186   0.001793 -14.530100   0.515316  -1.976650 -14.538300   0.001430   0.006152  -9.682480   0.000730   0.004500 -12.376400  -2.501140  11.264900 -18.935500   0.000182   0.006931 -12.611100  -0.004223   0.006303  10.260400  -0.378145  11.928900  58.284900  -3.477090  30.563100 -17.680300 -12.082300  51.924500 -27.277800 -15.942000  17.899400 -31.586300  17.331300  65.121300  23.687900   0.002352  -0.002938   6.843940   0.001274  -0.004474  25.555200   1.413880   2.960240  20.939200  -0.000167  -0.003151  14.657400  -0.006961  -0.001908  19.817200  -2.322060  -6.425700  19.947500   0.000740  -0.003958  13.285000  -0.004633  -0.004371  20.935900  -4.398720 -11.337200  21.372800   0.000425  -0.005423  14.234300  -0.006656  -0.003895  25.747200  -8.285530 -16.637000  40.441500   0.000200  -0.001357  26.934000  -0.004195  -0.000967   2.061310  11.442100   4.666130  -0.490699   2.284780  19.077600  -5.074080  -4.971690   6.546230  -0.000000   0.000000  -0.000000   3.162560  10.577500  -7.447580  -1.808170   3.467540  -7.526590  -9.478030  -0.376511   4.212230  -0.000000   0.000000   0.000000
